<svg xmlns="http://www.w3.org/2000/svg" width="11.5rem" height="2rem" viewBox="0 0 249 64"
    preserveAspectRatio="xMinYMid meet">
    <g>
        <path
            d="M14.6,0.9 C19.2,0.9 21.9,2.5 24.4,4.9 L22.5,7 C20.4,5 18,3.5 14.6,3.5 C9,3.6 4.8,8.1 4.8,13.9 L4.8,14 C4.8,19.8 9,24.4 14.6,24.4 C18.1,24.4 20.3,23.1 22.7,20.8 L24.6,22.6 C22,25.2 19.1,27 14.5,27 C7.3057971,27 2.05404327,21.4640202 1.90332959,14.3163706 L1.9,14 C1.9,6.8 7.2,0.9 14.6,0.9 Z M40.6,0.9 C48.3,0.9 53.4,6.9 53.4,13.9 L53.4,14 C53.4,20.9 48.2,27 40.5,27 C32.9115942,27 27.8483722,21.1726528 27.703206,14.3037025 L27.7,14 C27.7,7 32.9,0.9 40.6,0.9 Z M99.5,0.9 C104.1,0.9 106.8,2.5 109.3,4.9 L107.4,7 C105.3,5 102.9,3.5 99.5,3.5 C93.9,3.5 89.7,8 89.7,13.8 L89.7,14 C89.7,19.8 93.9,24.4 99.5,24.4 C103,24.4 105.2,23.1 107.6,20.8 L109.5,22.6 C106.9,25.3 104,27 99.4,27 C92.2057971,27 86.9540433,21.4640202 86.8033296,14.3163706 L86.8,14 C86.8,6.8 92.1,0.9 99.5,0.9 Z M138.4,1.4 L138.4,15.9 C138.4,21.3 141.3,24.4 146.1,24.4 C150.7,24.4 153.7,21.6 153.7,16.1 L153.7,1.4 L156.5,1.4 L156.5,15.8 C156.5,23.1 152.3,27 146,27 C139.9,27 135.6,23.1 135.6,16 L135.6,1.4 L138.4,1.4 Z M170.9,1 C174.6,1 177.2,2 179.8,4.1 L178.1,6.3 C175.8,4.4 173.4,3.6 170.8,3.6 C167.5,3.6 165.4,5.4 165.4,7.7 L165.4,7.8 C165.4,10.2 166.7,11.5 172.2,12.7 C177.8,13.9 180.4,16 180.4,19.8 L180.4,19.9 C180.4,24.2 176.8,27 171.8,27 C168,26.9 164.7,25.6 161.7,22.9 L163.5,20.8 C166.1,23.2 168.6,24.4 172.1,24.4 C175.5,24.4 177.7,22.6 177.7,20.1 L177.7,20 C177.7,17.7 176.4,16.3 171.1,15.2 C165.416,13.926 162.70924,12.1718 162.603243,8.1491352 L162.6,7.9 C162.6,3.9 166.1,1 170.9,1 Z M208.6,0.9 C216.3,0.9 221.4,6.9 221.4,13.9 L221.4,14 C221.4,20.9 216.2,27 208.5,27 C201.010145,27 195.851229,21.1726528 195.703268,14.3037025 L195.7,14 C195.7,7 200.9,0.9 208.6,0.9 Z M62.1,1.4 L78,21.6 L78,1.4 L80.8,1.4 L80.8,26.6 L78.5,26.6 L62.2,5.9 L62.2,26.6 L59.4,26.6 L59.4,1.4 L62.1,1.4 Z M117.2,1.4 L117.2,24 L131.4,24 L131.4,26.6 L114.4,26.6 L114.4,1.4 L117.2,1.4 Z M189.4,1.4 L189.4,26.6 L186.6,26.6 L186.6,1.4 L189.4,1.4 Z M230.1,1.4 L246,21.6 L246,1.4 L248.8,1.4 L248.8,26.6 L246.5,26.6 L230.2,5.9 L230.2,26.6 L227.4,26.6 L227.4,1.4 L230.1,1.4 Z M40.6,3.5 C34.9,3.5 30.7,8.1 30.7,13.8 L30.7,14 C30.7,19.7 34.9,24.4 40.6,24.4 C46.3033333,24.4 50.3628611,19.9520556 50.4965944,14.2889843 L50.5,14 C50.5,8.2 46.3,3.5 40.6,3.5 Z M208.6,3.5 C202.8,3.5 198.7,8.1 198.7,13.8 L198.7,14 C198.7,19.7 202.9,24.4 208.6,24.4 C214.303333,24.4 218.362861,19.9520556 218.496594,14.2889843 L218.5,14 C218.5,8.2 214.3,3.5 208.6,3.5 Z"
            fill="#fff"></path>
        <path
            d="M66.9,36.8 C74.7,36.8 80.4,42.6 80.4,49.8 L80.4,50 C80.4,57.2 74.6,63.1 66.8,63.1 C59.1098592,63.1 53.46098,57.4622297 53.3033821,50.307546 L53.3,50 C53.3,42.7 59.1,36.8 66.9,36.8 Z M124.2,36.8 C129.3,36.8 132.7,39 134.9,42.1 L129.6,46.2 C128.2,44.4 126.5,43.2 124.1,43.2 C120.6,43.2 118.1,46.2 118.1,49.9 L118.1,50 C118.1,53.8 120.6,56.7 124.1,56.7 C126.7,56.7 128.3,55.5 129.8,53.6 L135.1,57.3 C132.7,60.6 129.5,63 123.9,63 C116.802857,63.0985714 111.066,57.756 110.903538,50.3244184 L110.9,50 C110.9,42.6 116.6,36.8 124.2,36.8 Z M9.2,37.4 L13.7,44.5 L18.2,37.4 L26,37.4 L17.7,49.7 L26.3,62.6 L18.3,62.6 L13.5,55 L8.6,62.6 L0.8,62.6 L9.5,49.8 L1.2,37.4 L9.2,37.4 Z M50.1,37.4 L50.1,43.5 L36.9,43.5 L36.9,47.8 L48.8,47.8 L48.8,53.6 L36.9,53.6 L36.9,62.6 L29.9,62.6 L29.9,37.4 L50.1,37.4 Z M96.8,37.4 C100.7,37.4 103.3,38.4 105,40.1 C106.431818,41.4363636 107.134711,43.3194215 107.195652,45.6621995 L107.2,46 C107.2,49.9 105.1,52.4 102,53.7 L108,62.5 L99.9,62.5 L95,54.9 L91.9,54.9 L91.9,62.5 L84.9,62.5 L84.9,37.4 L96.8,37.4 Z M159.2,37.4 L159.2,43.3 L145.8,43.3 L145.8,47.1 L157.9,47.1 L157.9,52.6 L145.8,52.6 L145.8,56.6 L159.3,56.6 L159.3,62.5 L138.9,62.5 L138.9,37.4 L159.2,37.4 Z M66.8,43.1 C63,43.1 60.4,46.2 60.4,49.8 L60.4,50 C60.4,53.6 63,56.8 66.8,56.8 C70.6170213,56.8 73.1887732,53.8305115 73.2964815,50.2353313 L73.3,50 C73.3,46.3 70.7,43.1 66.8,43.1 Z M96.4,43.4 L91.8,43.4 L91.8,49.4 L96.5,49.4 L96.5,49.5 C98.9,49.5 100.2,48.3 100.2,46.5 L100.2,46.4 C100.2,44.4 98.8,43.4 96.4,43.4 Z"
            fill="#00A9C7"></path>
    </g>
</svg>